<svg xmlns="http://www.w3.org/2000/svg" viewBox="0 0 26 26"><path d="M1.6875 0C0.757813 0 0 0.757813 0 1.6875L0 14.3125C0 15.242188 0.757813 16 1.6875 16L4 16L4 19L7 22L10 22L10 24.3125C10 25.242188 10.757813 26 11.6875 26L24.3125 26C25.242188 26 26 25.242188 26 24.3125L26 11.6875C26 10.757813 25.242188 10 24.3125 10L16 10L16 1.6875C16 0.757813 15.242188 0 14.3125 0 Z M 2 2L14 2L14 10L11.6875 10C11.300781 10 10.941406 10.125 10.65625 10.34375C10.246094 10.105469 9.871094 9.886719 9.53125 9.65625C10.355469 8.796875 11.15625 7.753906 11.78125 6.5C11.867188 6.347656 11.910156 6.175781 11.90625 6L13 6L13 4L9 4L9 3L7 3L7 4L3 4L3 6L5.125 6C4.859375 6.097656 4.644531 6.300781 4.539063 6.5625C4.429688 6.824219 4.441406 7.121094 4.5625 7.375C4.5625 7.375 4.894531 8.078125 5.6875 8.96875C5.894531 9.199219 6.132813 9.457031 6.40625 9.71875C4.988281 10.753906 3.78125 11.21875 3.78125 11.21875C3.40625 11.300781 3.109375 11.59375 3.023438 11.972656C2.9375 12.347656 3.074219 12.738281 3.375 12.976563C3.679688 13.21875 4.089844 13.261719 4.4375 13.09375C4.4375 13.09375 6.117188 12.46875 8 11C8.519531 11.378906 9.078125 11.773438 9.75 12.15625C9.828125 12.199219 9.914063 12.230469 10 12.25L10 14L6 14L5.5 13.5L5 14L2 14 Z M 5.8125 6L9.75 6C9.21875 6.953125 8.601563 7.738281 7.9375 8.40625C7.640625 8.136719 7.390625 7.882813 7.1875 7.65625C6.535156 6.925781 6.375 6.5625 6.375 6.5625C6.273438 6.304688 6.070313 6.101563 5.8125 6 Z M 16.96875 13.3125L19.0625 13.3125L22.5 22.625L20.34375 22.625L19.65625 20.625L16.34375 20.625L15.65625 22.625L13.5 22.625 Z M 17.96875 15.875L16.84375 19.15625L19.15625 19.15625L18.03125 15.875 Z M 7 16L10 16L10 19L7 19Z" fill="#555555"/></svg>